<svg width="24" height="24" viewBox="0 0 24 24" fill="none" xmlns="http://www.w3.org/2000/svg">
<g clip-path="url(#clip0_12_3)">
<path fill-rule="evenodd" clip-rule="evenodd" d="M0 1.2C0 0.537258 0.537258 0 1.2 0H22.8C23.4627 0 24 0.537258 24 1.2V4.30294C24 4.93946 23.7471 5.54991 23.2971 6L15.6 13.6971V20.4C15.6 20.8545 15.3432 21.27 14.9367 21.4733L10.1367 23.8733C9.76467 24.0593 9.3229 24.0394 8.96912 23.8208C8.61534 23.6021 8.4 23.2159 8.4 22.8V13.6971L0.702943 6C0.252855 5.54991 0 4.93946 0 4.30294V1.2ZM2.4 2.4V4.30294L10.4485 12.3515C10.6736 12.5765 10.8 12.8817 10.8 13.2V20.8584L13.2 19.6584V13.2C13.2 12.8817 13.3264 12.5765 13.5515 12.3515L21.6 4.30294V2.4H2.4Z" fill="white"/>
</g>
<defs>
<clipPath id="clip0_12_3">
<rect width="24" height="24" fill="white"/>
</clipPath>
</defs>
</svg>
